# xmcd
#
# Track frame offsets:
#	150
#	11791
#	26403
#	47106
#	56858
#	71207
#	84661
#	107573
#	120801
#	130651
#	149931
#	163678
#	178415
#	191022
#	207998
#	227771
#	245986
#
# Disc length: 3393 seconds
#
# Revision: 1
# Processed by: cddbd v1.5.1PL0 Copyright (c) Steve Scherf et al.
# Submitted via: audiograbber 1.83.01
#
DISCID=040d3f11
DTITLE=Mick Pini and Peter Paul Bruder - Come On Into My Kitchen
DYEAR=1999
DGENRE=Blues
TTITLE0=My Babe
TTITLE1=One More Time
TTITLE2=So Much Trouble
TTITLE3=My Little Woman
TTITLE4=Bottom Blues
TTITLE5=World Keeps Turning
TTITLE6=Come On Into My Kitchen
TTITLE7=Gambling Blues
TTITLE8=Can't Get That Stuff
TTITLE9=Dust My Blues
TTITLE10=Travelling Blues
TTITLE11=Gone Baby Gone
TTITLE12=Steady Rolling Man
TTITLE13=Can't Be Satisfied
TTITLE14=Rock Me Baby
TTITLE15=Black Night
TTITLE16=Lousiana Walk
EXTD=
EXTT0=
EXTT1=
EXTT2=
EXTT3=
EXTT4=
EXTT5=
EXTT6=
EXTT7=
EXTT8=
EXTT9=
EXTT10=
EXTT11=
EXTT12=
EXTT13=
EXTT14=
EXTT15=
EXTT16=
PLAYORDER=
